<?xml version="1.0" encoding="UTF-8" standalone="no"?>
<!-- Created with Inkscape (http://www.inkscape.org/) -->

<svg
   xmlns:dc="http://purl.org/dc/elements/1.1/"
   xmlns:cc="http://creativecommons.org/ns#"
   xmlns:rdf="http://www.w3.org/1999/02/22-rdf-syntax-ns#"
   xmlns:svg="http://www.w3.org/2000/svg"
   xmlns="http://www.w3.org/2000/svg"
   xmlns:sodipodi="http://sodipodi.sourceforge.net/DTD/sodipodi-0.dtd"
   xmlns:inkscape="http://www.inkscape.org/namespaces/inkscape"
   width="230.72217mm"
   height="291.99158mm"
   viewBox="0 0 230.72217 291.99158"
   version="1.1"
   id="svg8"
   sodipodi:docname="LogoKazakhCP.svg"
   inkscape:version="0.92.2 (5c3e80d, 2017-08-06)">
  <defs
     id="defs2" />
  <sodipodi:namedview
     id="base"
     pagecolor="#ffffff"
     bordercolor="#666666"
     borderopacity="1.0"
     inkscape:pageopacity="0.0"
     inkscape:pageshadow="2"
     inkscape:zoom="0.35"
     inkscape:cx="869.89463"
     inkscape:cy="657.31458"
     inkscape:document-units="mm"
     inkscape:current-layer="layer1"
     showgrid="false"
     fit-margin-top="0"
     fit-margin-left="0"
     fit-margin-right="0"
     fit-margin-bottom="0"
     inkscape:window-width="1366"
     inkscape:window-height="705"
     inkscape:window-x="-8"
     inkscape:window-y="-8"
     inkscape:window-maximized="1" />
  <metadata
     id="metadata5">
    <rdf:RDF>
      <cc:Work
         rdf:about="">
        <dc:format>image/svg+xml</dc:format>
        <dc:type
           rdf:resource="http://purl.org/dc/dcmitype/StillImage" />
        <dc:title></dc:title>
      </cc:Work>
    </rdf:RDF>
  </metadata>
  <g
     inkscape:label="Layer 1"
     inkscape:groupmode="layer"
     id="layer1"
     transform="translate(45.690961,-20.722181)">
    <rect
       style="fill:#ffffff;fill-opacity:1;stroke:#ffffff;stroke-width:0.26458332;stroke-opacity:1"
       id="rect1068"
       width="324.30356"
       height="389.31549"
       x="-85.000481"
       y="-38.8041" />
    <path
       id="path865-0"
       style="fill:#000000;stroke-width:0.32266968"
       d="m 175.10595,245.1431 c -4.46144,-1e-4 -8.15841,1.95246 -9.91775,5.5485 -1.60293,3.27619 -1.40251,6.39109 0.57824,8.98808 1.29802,1.70182 2.82374,2.59247 6.25028,3.64784 2.52161,0.77665 3.64784,1.4372 3.64784,2.1394 0,0.76332 -0.71856,1.54323 -1.72961,1.87689 -1.89502,0.62542 -4.5548,-0.3462 -7.51943,-2.74764 l -1.02166,-0.82734 -1.04696,3.41013 c -0.57592,1.87566 -1.12792,3.32971 -1.22679,3.23081 -0.0989,-0.0989 -1.9295,-5.65408 -4.06797,-12.34446 l -3.88813,-12.16412 h -4.79094 -4.79039 l -3.99614,12.4225 c -2.19799,6.83252 -4.20772,13.11661 -4.4659,13.96452 l -0.46971,1.54202 4.40645,-0.0899 4.40592,-0.0894 0.51625,-2.09703 0.51623,-2.09755 h 3.82871 c 4.31641,0 3.8391,-0.3041 4.68447,2.98483 l 0.35245,1.37149 h 4.37801 c 3.87258,0 4.35563,-0.0596 4.18116,-0.51418 -0.10848,-0.28268 -0.29221,-0.89205 -0.40825,-1.35444 l -0.21135,-0.84077 1.10019,0.7307 c 1.38647,0.92126 2.9527,1.62972 4.81004,2.17558 0.8594,0.2526 2.63758,0.39199 4.35632,0.34158 6.29311,-0.18446 10.09094,-3.56503 10.42159,-9.27643 0.167,-2.88513 -0.24307,-4.40759 -1.60507,-5.95881 -1.31379,-1.49635 -2.56527,-2.20665 -5.63068,-3.19516 -2.73576,-0.88222 -3.80391,-1.66419 -3.61476,-2.64635 0.31186,-1.61948 2.97198,-1.67938 6.02962,-0.13591 l 1.84123,0.92915 1.19941,-3.14658 c 0.6599,-1.73084 1.19991,-3.30384 1.19991,-3.49539 0,-0.19154 -0.83473,-0.66094 -1.85518,-1.04284 -2.23372,-0.83583 -4.41973,-1.23915 -6.44765,-1.2392 z m -184.51692,0.031 c -0.769117,0.008 -1.553422,0.0728 -2.347649,0.19534 -5.695764,0.87858 -9.703143,4.5244 -11.22463,10.21178 -0.508794,1.90164 -0.559752,6.18584 -0.09716,8.19175 1.15906,5.02777 4.811369,8.86039 9.694492,10.17354 2.530449,0.68045 5.9704559,0.62871 8.4175871,-0.12713 5.57223083,-1.72119 9.1504558,-6.56825 9.5327258,-12.91394 0.2008452,-3.33351 -0.2606146,-5.75116 -1.6143552,-8.46046 -2.32320037,-4.64948 -6.9770889,-7.33002 -12.3610157,-7.27088 z m -24.607785,0.0636 c -1.843828,0 -3.622516,0.26175 -4.955249,0.78393 -4.706567,1.8441 -7.338959,7.68805 -5.396071,11.98014 1.216157,2.68664 3.277076,4.20175 7.248155,5.32888 2.498936,0.70929 3.37394,1.28278 3.37394,2.21123 0,1.20539 -1.137867,1.98254 -2.857712,1.95182 -1.696191,-0.0303 -3.712342,-0.94316 -5.77379,-2.61483 -0.754248,-0.61163 -1.380226,-1.06603 -1.391127,-1.00975 -0.01085,0.0562 -0.499057,1.62679 -1.085215,3.49022 -0.919136,2.92198 -1.004305,3.4591 -0.618569,3.90519 0.685297,0.79256 3.367828,2.15905 5.306642,2.70319 2.520527,0.70739 7.04379,0.47941 9.231498,-0.4656 1.895872,-0.81891 4.385151,-3.26786 5.127334,-5.04414 0.263498,-0.63063 0.565943,-2.07421 0.671777,-3.20755 0.45929,-4.91826 -1.797315,-7.73307 -7.495143,-9.35034 -2.539074,-0.72072 -3.37447,-1.27874 -3.37447,-2.25412 0,-1.99676 2.889092,-2.23687 6.049248,-0.50281 0.931043,0.51091 1.75096,0.83298 1.821577,0.71571 0.07091,-0.11721 0.654235,-1.57552 1.296062,-3.24062 0.835131,-2.16611 1.071509,-3.14219 0.831982,-3.4308 -0.184124,-0.22184 -1.383771,-0.74723 -2.665995,-1.16737 -1.592368,-0.52152 -3.501098,-0.78219 -5.344874,-0.78187 z m 69.644841,0.44906 v 14.08958 14.0901 l 7.17939,-0.12196 c 6.54804,-0.11083 7.342346,-0.18611 9.033562,-0.85628 4.935379,-1.95572 8.310087,-7.6891 8.310087,-14.11903 0,-5.8016 -2.851045,-9.93742 -8.355542,-12.12174 -1.636501,-0.64939 -2.49219,-0.72928 -8.988107,-0.83923 z m -29.0400833,0.0532 v 14.03584 14.03635 h 8.3891433 8.389673 v -3.87212 -3.87211 h -4.033362 -4.033334 v -10.16424 -10.16372 h -4.356312 z m 18.0691623,0 v 14.03584 14.03635 h 4.195101 4.194572 V 259.7758 245.73996 h -4.194572 z m 42.636678,0 -1.304317,4.11396 c -0.717232,2.26271 -2.739734,8.57865 -4.494292,14.03584 l -3.189975,9.92239 h 4.431771 4.432273 l 0.20619,-1.03146 c 0.113427,-0.56711 0.354621,-1.5831 0.536416,-2.25826 l 0.330729,-1.22784 h 3.687101 c 4.164992,0 3.977878,-0.11282 4.666906,2.82361 l 0.397378,1.69395 h 4.361498 c 3.997086,0 4.348982,-0.0473 4.208541,-0.56483 -0.08432,-0.31054 -2.088964,-6.62704 -4.454525,-14.03635 l -4.301013,-13.47101 h -4.757341 z m 18.993167,0 v 14.03584 14.03635 h 4.186819 4.18682 l 0.0889,-5.24361 0.08834,-5.24309 2.558521,5.24309 2.557963,5.24361 h 4.955247 4.95528 l -0.37621,-0.72606 c -0.20696,-0.3993 -1.76231,-3.04081 -3.45612,-5.86992 -1.69384,-2.82913 -2.92849,-5.19401 -2.74402,-5.25549 0.18446,-0.0615 1.01756,-0.5444 1.85155,-1.07332 1.1697,-0.74179 1.70828,-1.38072 2.3549,-2.79312 1.74289,-3.80693 0.76708,-8.54396 -2.18022,-10.58643 -2.14011,-1.48309 -3.9992,-1.76023 -11.848385,-1.76423 z m 24.20058,0 v 14.03584 14.03635 h 4.35581 4.35631 V 259.7758 245.73996 h -4.35631 z m 9.68002,0 v 3.8716 3.87211 h 2.90423 2.9037 v 10.16424 10.16424 h 4.35631 4.35581 v -10.16424 -10.16424 h 2.90422 2.9037 v -3.87211 -3.8716 h -10.16373 z m -25.490927,6.77581 h 1.473279 c 1.902989,0 2.586858,0.39019 3.027734,1.726 0.431477,1.30738 0.0641,2.49519 -1.003037,3.24269 -0.405606,0.28409 -1.358556,0.51677 -2.117698,0.51677 h -1.380278 v -2.74299 z m -22.832219,0.48421 0.300249,1.45159 c 0.164942,0.79862 0.709137,3.08586 1.209755,5.08238 l 0.910537,3.62975 h -2.23864 c -1.98202,0 -2.219034,-0.0643 -2.06756,-0.5643 0.806265,-2.66134 1.815439,-7.17707 1.846924,-8.26358 z m 78.539916,0 0.24133,1.85467 c 0.13284,1.02021 0.59433,3.17243 1.02526,4.78265 0.43092,1.61026 0.7834,3.06252 0.7834,3.2272 0,0.16464 -0.94342,0.2992 -2.09701,0.2992 -1.15353,0 -2.09756,-0.11139 -2.09756,-0.24804 0,-0.13669 0.30573,-1.33493 0.67903,-2.66237 0.37332,-1.32745 0.85587,-3.50229 1.0723,-4.8333 z m -106.044173,0.48369 1.210257,0.007 c 1.573265,0.009 3.658843,0.96998 4.541335,2.09186 2.159079,2.74484 1.510453,7.53808 -1.301724,9.62112 -0.532897,0.39471 -1.571598,0.70541 -2.661867,0.79582 l -1.788001,0.14831 v -6.33191 z m -53.703166,0.35967 c 1.4538325,-0.013 2.5997429,0.54629 3.677285,1.77354 2.4039512,2.73796 1.8099352,7.67409 -1.1430794,9.49916 -1.339162,0.82767 -3.8271716,0.83539 -5.1707526,0.0165 -1.687195,-1.0288 -2.542593,-2.77539 -2.545583,-5.19503 -0.004,-3.56854 1.612847,-5.72347 4.539775,-6.05337 0.2209537,-0.0249 0.4346567,-0.0385 0.642355,-0.0403 z"
       inkscape:connector-curvature="0" />
    <path
       id="path865"
       transform="matrix(0.26458333,0,0,0.26458333,4.0250648,-4.8726387)"
       style="fill:#e6212a;fill-opacity:1;stroke-width:1.21953893"
       d="m -181.44727,96.736328 v 67.076172 67.07422 h 50.68165 c 53.457175,0 61.809805,0.61003 76.445308,5.58789 22.273968,7.57587 36.859228,24.34127 41.917968,48.18555 2.7691501,13.05233 1.764882,40.0447 -1.923828,51.71679 -10.37476,32.82867 -34.534628,45.71719 -85.716798,45.72852 l -15.54883,0.004 v 33.5371 33.53711 h -32.92773 -32.92774 v 190.33008 c 0,180.70254 0.10851,190.29747 2.13477,189.67774 1.1738,-0.35906 13.38446,-3.99797 27.13477,-8.08594 29.34505,-8.72432 96.411522,-30.81907 170.466792,-56.16016 C 74.9884,745.54322 125.21013,729.29216 154.43945,720.88672 l 18.19532,-5.23438 5.07226,-10.97461 c 2.79031,-6.03677 25.26575,-56.38832 49.94531,-111.89257 l 44.87305,-100.91797 58.08008,0.002 c 82.15478,0.003 129.14493,1.16678 129.93164,3.2168 0.3394,0.88471 7.49855,32.49084 15.91016,70.23437 8.41156,37.74346 15.61658,69.79802 16.00976,71.23242 0.55642,2.0298 -1.04115,4.46192 -7.20117,10.97461 -12.4077,13.1181 -27.68089,21.13991 -45.2168,23.74805 -26.25808,3.90542 -50.51447,-12.05917 -52.80078,-34.75391 -0.58507,-5.80735 4.55886,-27.67187 14.88086,-63.25 0.9244,-3.18602 1.54275,-5.79296 1.37305,-5.79296 -0.1697,0 -6.04017,6.62177 -13.04492,14.71484 l -12.73633,14.71484 -22.56055,-0.86718 -22.5625,-0.86914 4.91016,5.36132 c 9.95184,10.8686 13.99414,21.26568 13.99414,35.99219 0,15.42531 -3.5299,27.97 -18.65625,66.32227 -8.37702,21.23958 -12.35845,33.37869 -14.13672,43.0957 -1.26761,6.92674 -1.25096,6.91013 7.17383,-6.50977 11.02882,-17.56785 23.12025,-34.03864 31.53711,-42.96093 11.10319,-11.76998 15.35534,-13.02527 19.16601,-5.65625 3.89768,7.53732 4.45933,15.96176 5.35156,80.32617 0.63194,45.58915 1.35169,66.64846 2.38868,69.9043 1.94887,6.11863 9.24099,14.0918 15.34765,16.7832 7.19165,3.16962 21.52886,4.7725 43.07617,4.81445 13.93388,0.0265 18.52338,0.38464 16.92188,1.31641 -5.13732,2.98885 -43.71957,17.82146 -68.53516,26.34765 l -26.83007,9.2168 -25.61133,0.0117 c -14.08565,0.004 -30.27523,-0.35114 -35.97657,-0.79297 l -10.36523,-0.80469 -14.90234,14.65235 -14.9043,14.65234 H 469.21289 675.88867 V 511.99023 96.736328 H 247.2207 Z m 609.34766,42.857422 c 37.83039,0.5568 64.5044,31.6507 75.97852,89.70117 1.48407,7.50852 2.5151,14.43441 2.29101,15.39063 -0.28119,1.19929 -2.67712,-0.1299 -7.72461,-4.28711 -13.33871,-10.98599 -39.63229,-27.77952 -55.90429,-35.70508 -26.62111,-12.96623 -47.93757,-18.81717 -78.54883,-21.55664 -8.88739,-0.79537 -16.16016,-1.9345 -16.16016,-2.53125 0,-2.02159 12.76508,-14.61785 20.19141,-19.92578 9.25912,-6.61791 28.11931,-15.72907 37.73828,-18.23047 7.74501,-2.0141 15.13298,-2.95855 22.13867,-2.85547 z m 92.07227,44.37305 c 1.03691,0.0299 4.15613,1.0002 7.51953,2.36718 23.8916,9.71029 49.78688,36.28635 58.27929,59.81055 3.87988,10.74678 3.92558,28.7878 0.10157,39.85547 -7.45081,21.56376 -27.36183,42.15277 -59.32813,61.35156 -11.80698,7.09118 -15.29297,8.80906 -15.29297,7.53321 0,-0.21771 1.39728,-4.47075 3.10547,-9.45118 4.23942,-12.36046 10.96599,-38.30897 13.57031,-52.34961 1.6232,-8.75108 2.1439,-17.85082 2.125,-37.19531 -0.0227,-23.03853 -0.35152,-27.14773 -3.27343,-40.91406 -1.78651,-8.41667 -4.30782,-18.70802 -5.60352,-22.87109 -1.29581,-4.16307 -1.97628,-7.80412 -1.51367,-8.08985 0.0578,-0.0355 0.16239,-0.0511 0.31055,-0.0469 z m -168.96485,27.73047 c 15.07122,0.10699 31.97085,1.7853 45.48633,4.88085 l 6.58594,1.50782 -13.29297,8.13476 c -36.41034,22.2779 -65.35826,49.26347 -84.15234,78.44922 -2.59155,4.02448 -8.34974,14.63809 -12.79688,23.58594 l -8.08594,16.26953 -2.50976,-4.07422 c -11.20172,-18.17778 -16.4627,-55.32999 -10.84961,-76.63476 6.77227,-25.70479 23.66075,-42.33206 50.2207,-49.44532 7.05653,-1.88988 17.67244,-2.75705 29.39453,-2.67382 z M 84.957031,226.57812 c 10.455908,-0.0253 21.136129,0.6677 27.503909,2.08985 11.31602,2.52725 28.39963,8.64479 34.32226,12.29101 l 4.44141,2.73438 -9.36523,24.39062 c -5.15109,13.41495 -9.75949,25.40282 -10.24024,26.63868 -0.82009,2.10834 -1.22075,2.04298 -6.47656,-1.03711 -23.02405,-13.49302 -40.992083,-17.11862 -50.67383,-10.22461 -6.89794,4.91177 -5.056926,14.84135 3.566406,19.23437 2.501439,1.2743 10.584611,4.03349 17.962891,6.13086 17.971883,5.10879 31.757923,12.00823 40.898433,20.47071 13.26661,12.28255 18.39137,24.82501 18.34375,44.88671 -0.0971,40.79142 -24.60673,70.47624 -64.533199,78.15821 C 73.135932,455.72255 48.18727,453.92718 30.875,448.03516 16.052031,442.99032 -7.0527344,429.326 -7.0527344,425.60547 c 0,-1.19048 14.1288843,-48.66959 16.5214844,-55.51953 0.38505,-1.10237 3.408949,1.01151 9.011719,6.29687 15.111241,14.25524 33.200212,22.80078 48.257812,22.80078 9.555292,0 16.698677,-3.1107 19.478516,-8.48632 4.661601,-9.01451 0.274429,-15.0883 -14,-19.38086 C 36.535755,360.5866 28.80761,357.00968 17.792969,346.12109 -2.5886612,325.97276 -6.3313947,297.29875 7.703125,268.82812 c 9.61603,-19.50734 27.988059,-33.89982 51.099609,-40.03124 5.4683,-1.45078 15.698385,-2.19351 26.154297,-2.21876 z m 84.822269,4.31055 h 33.53906 33.53711 V 340.03711 449.18555 H 203.31836 169.7793 V 340.03711 Z m 254.32812,3.63086 c 7.00539,0.0649 13.56487,1.53722 18.76758,4.36719 12.22492,6.64966 18.85672,19.92866 20.20703,40.46094 0.3868,5.87879 0.26817,13.38894 -0.26172,16.68945 l -0.96289,6 -5.43359,-7.2207 c -16.43951,-21.84461 -43.13851,-40.85952 -64.99219,-46.28711 -1.84456,-0.45811 -3.35277,-1.1849 -3.35156,-1.61524 0.004,-1.79141 10.9837,-7.4616 19.30078,-9.96875 5.55908,-1.67578 11.27784,-2.47629 16.72656,-2.42578 z m -20.16797,43.92969 c 0.47539,0 -0.1621,4.80283 -1.41797,10.67187 -5.31072,24.82017 -3.99339,49.74791 3.75196,70.97071 3.26018,8.93314 3.38611,9.82422 1.39453,9.82422 -4.53721,0 -19.56368,-8.77608 -26.18359,-15.29102 -9.60953,-9.45718 -13.33987,-17.22649 -13.44532,-28.00391 -0.10356,-10.56831 3.7355,-19.2047 13.08594,-29.43554 5.85736,-6.40887 20.86754,-18.73633 22.81445,-18.73633 z m -519.53125,7.02734 v 20.26758 20.26758 h 10.10742 c 17.531646,0 25.479825,-6.62057 25.693364,-21.40234 0.179528,-12.41613 -6.982169,-17.87201 -24.466794,-18.63672 z m 615.69336,4.07617 c 0.16063,-0.0113 0.27452,0.037 0.3418,0.14649 1.80563,2.92142 2.37431,15.30936 1.07812,23.50781 -2.51788,15.92775 -10.14878,28.0881 -21.20507,33.79492 -6.20251,3.20145 -21.60421,4.08278 -30.7461,1.75977 -7.36611,-1.87185 -25.90701,-9.21281 -26.76172,-10.5957 -0.33033,-0.5348 4.75454,-2.74186 11.29883,-4.90625 24.59819,-8.13532 41.35577,-18.58972 56.71875,-35.38477 4.80643,-5.25443 8.15147,-8.24418 9.27539,-8.32227 z m -159.73828,19.02344 c 0.0559,-0.0185 0.0991,-0.008 0.13086,0.0312 0.42134,0.51831 2.59937,7.52917 4.83984,15.57813 10.38033,37.29131 25.8179,68.70442 45.84766,93.29492 6.71097,8.23903 25.77646,27.22968 33.88086,33.74805 l 4.66602,3.75195 -4.05664,1.54883 c -7.00921,2.67458 -36.50557,2.74218 -48.61329,0.11132 -26.27279,-5.70882 -46.11797,-19.14119 -55.30664,-37.43554 -9.2228,-18.36235 -9.19959,-43.61693 0.0645,-71.23828 3.76368,-11.22172 16.80968,-38.81365 18.54687,-39.38868 z m 233.08399,38.31836 -0.0117,6.9375 c -0.0113,9.08481 -3.65478,23.99446 -8.90235,36.43164 -11.45163,27.14112 -32.27031,46.89056 -54.26172,51.47656 -26.10799,5.44449 -55.78597,-6.38511 -90.73046,-36.16601 l -12.50586,-10.6582 21.3125,-0.8418 c 57.45671,-2.26953 94.13386,-13.10721 133.55664,-39.46484 z m -2.43946,158.30274 v 36.01953 36.02148 h -37.11328 c -34.3011,0 -37.16078,-0.16249 -37.72461,-2.13476 -3.43718,-12.02453 -15.5443,-67.65003 -14.87109,-68.32422 0.48589,-0.48662 20.86979,-1.0408 45.29687,-1.23242 z M 539.16992,596.75 h 36.7168 v 37.80469 37.80664 l -44.20899,-0.0371 c -39.65472,-0.034 -43.95731,-0.22866 -41.76953,-1.87695 12.50449,-9.42006 16.74913,-13.38229 19.66016,-18.34961 l 3.38867,-5.77735 -4.71875,-23.25976 c -2.59498,-12.79265 -4.95866,-23.9487 -5.25195,-24.78711 -0.419,-1.19751 7.33888,-1.52149 36.18359,-1.52149 z m -114.92383,92.68555 h 76.42969 c 72.0045,0 76.42556,0.12206 76.35938,2.13281 -0.0389,1.17381 -2.64557,17.22634 -5.79297,35.67187 l -5.72266,33.53711 -69.51367,0.3086 c -80.15913,0.35565 -75.52115,0.96443 -81.39453,-10.67383 -3.72333,-7.37775 -6.22772,-22.4985 -5.125,-30.94922 1.49098,-11.42646 4.66281,-19.48936 9.7539,-24.80273 z m 134.56641,86.58593 -0.0723,3.35352 c -0.0401,1.84445 -2.37328,15.70387 -5.18359,30.79492 l -5.10937,27.43946 -58.53907,0.26171 c -46.83439,0.2109 -59.26822,-0.0635 -62.19531,-1.375 -16.09599,-7.21194 -21.63906,-37.59354 -9.49219,-52.02929 7.17162,-8.52303 5.93658,-8.38777 76.8711,-8.41797 z m -740.25977,54.87891 v 48.17188 48.17187 h 14.63477 14.63477 v -15.10156 -15.10156 l 11.94921,-0.48047 c 10.24709,-0.41152 12.98261,-0.99655 19.20704,-4.10547 6.43752,-3.2154 7.67132,-4.45013 10.90234,-10.91992 3.12821,-6.26381 3.64308,-8.67747 3.6582,-17.07422 0.0189,-12.16199 -2.65922,-19.64133 -9.1289,-25.48633 -7.58385,-6.85153 -13.89308,-8.07422 -41.6875,-8.07422 z m 101.421879,0 -3.085937,9.45313 c -3.098718,9.48718 -25.340552,79.00564 -26.921872,84.14648 -0.84295,2.74023 -0.8258,2.74414 13.824216,2.74414 h 14.669922 l 1.199218,-4.57226 c 0.659448,-2.51528 1.566979,-6.101 2.017578,-7.9668 l 0.820313,-3.39258 13.476562,0.34375 13.476563,0.34375 1.935547,7.31836 1.933593,7.31641 14.835938,0.34179 14.835938,0.3418 -3.962891,-12.53711 c -2.18018,-6.89507 -9.088733,-28.58965 -15.351563,-48.20898 l -11.386718,-35.67188 h -16.158204 z m 69.314453,0 v 48.17188 48.17187 H 3.9238281 18.556641 l 0.07031,-18.59766 0.07031,-18.59765 9.363281,18.59765 9.363281,18.59766 H 54.167969 70.914062 L 58.710938,906.96875 c -6.712362,-11.15131 -12.045011,-20.41309 -11.84961,-20.58203 0.195402,-0.16895 2.687198,-1.48272 5.53711,-2.91992 7.975177,-4.0218 11.763202,-10.70363 12.320312,-21.73633 0.556641,-11.02364 -1.820125,-18.14442 -7.808594,-23.40235 -7.128193,-6.25863 -13.76827,-7.42773 -42.232422,-7.42773 z m 173.291018,0 -10.49805,32.62305 c -5.77365,17.94247 -12.66004,39.20982 -15.30273,47.25976 -2.64268,8.04994 -4.8047,15.0468 -4.80469,15.54883 0,0.50207 6.56478,0.91211 14.58789,0.91211 h 14.58594 l 1.19922,-4.57226 c 0.65949,-2.51528 1.56898,-6.101 2.01953,-7.9668 l 0.81836,-3.39063 13.55664,0.3418 13.55469,0.34375 1.75976,7.62305 1.75781,7.62109 h 14.89649 14.89453 l -7.1543,-22.25586 c -3.93498,-12.24109 -10.83969,-33.91852 -15.34375,-48.17187 l -8.18945,-25.91602 h -16.16992 z m 69.39648,0 v 48.17188 48.17187 h 14.63477 14.63476 v -48.17187 -48.17188 h -14.63476 z m -162.199216,0.002 v 12.75586 12.75586 l 10.0625,0.35352 10.060547,0.35351 0.324218,35.0625 0.322266,35.06055 h 14.617185 14.61524 v -35.36523 -35.36719 h 9.75586 9.75586 v -12.80469 -12.80469 h -34.75586 z m -51.220703,21.63282 5.537109,0.625 c 3.045581,0.34318 6.613472,1.59769 7.927734,2.78711 3.045808,2.75629 3.185436,10.30985 0.25586,13.84961 -1.37356,1.65962 -4.199525,2.85335 -7.927735,3.3496 l -5.792968,0.76954 v -10.68946 z m 160.687499,0.92773 0.19727,5.48828 c 0.10847,3.01837 1.73729,11.38711 3.62109,18.59766 l 3.42578,13.10937 h -7.74414 c -4.25923,0 -7.74414,-0.28192 -7.74414,-0.62695 0,-0.34507 1.34524,-6.24394 2.99023,-13.10937 1.64504,-6.8654 3.50101,-14.95234 4.12305,-17.97071 z m -331.42187,0.60938 h 4.34765 c 4.46608,0 8.9879,1.77369 10.57227,4.14648 1.83349,2.74594 0.96402,10.08426 -1.45508,12.27344 -1.31426,1.18938 -4.88216,2.44197 -7.92773,2.78515 l -5.53711,0.625 v -9.91406 z m 88.636714,1.05078 c 0.131528,0.034 0.187448,0.94684 0.244141,2.63281 0.07941,2.3616 1.715665,10.73233 3.634766,18.59961 l 3.488281,14.30273 h -7.898438 c -7.606938,0 -7.871974,-0.10202 -7.132812,-2.74414 1.678329,-5.99977 5.559926,-22.5968 6.630859,-28.35351 0.572708,-3.07831 0.864262,-4.48297 1.033203,-4.4375 z m 221.771486,219.8593 c -23.87278,-0.3496 -44.91221,11.8972 -54.4707,32.0918 -12.727484,26.8899 -7.519511,59.5013 12.45703,77.9961 7.7184,7.1458 14.10539,10.6669 24.29492,13.3945 8.48527,2.2715 25.58846,2.4254 33.53711,0.2989 26.27823,-7.0301 43.43847,-30.6064 43.5957,-59.8946 0.19314,-35.9326 -21.15518,-60.815 -54.60547,-63.6464 -1.61412,-0.1365 -3.2171,-0.2168 -4.80859,-0.2403 z m 323.92383,0.055 c -8.05852,-0.069 -16.38853,1.0915 -22.30274,3.3379 -9.60468,3.6481 -17.19261,10.728 -22.0332,20.5605 -3.46707,7.0427 -4.00514,9.3808 -3.98242,17.3145 0.0521,18.8673 9.99697,29.969 32.29297,36.0508 14.38136,3.9228 18.39529,7.3003 15.70117,13.2129 -4.30738,9.454 -23.30381,6.5043 -37.26758,-5.7871 -2.95363,-2.5999 -5.54174,-4.5218 -5.75195,-4.2715 -0.21014,0.2502 -2.36619,7.0143 -4.79102,15.0312 -3.98098,13.1618 -4.22918,14.7758 -2.54687,16.6348 2.85739,3.1573 15.26514,9.4031 22.59765,11.375 9.54342,2.5664 26.13877,2.4117 34.93555,-0.3262 19.1187,-5.9504 29.60238,-20.4534 29.74219,-41.1484 0.0979,-14.4886 -5.86688,-24.592 -18.20117,-30.832 -2.49661,-1.2631 -9.33974,-3.7528 -15.20704,-5.5333 -12.19351,-3.7001 -15.75643,-6.9947 -13.32812,-12.3242 2.65867,-5.8352 14.29567,-5.6121 26.15039,0.502 4.05698,2.0922 7.48852,3.6622 7.625,3.4883 0.63541,-0.8087 10.3418,-26.7712 10.3418,-27.6621 0,-1.5383 -11.01875,-5.9489 -20.34375,-8.1426 -4.05752,-0.9548 -8.79586,-1.4393 -13.63086,-1.4805 z m -667.25977,2.2051 v 60.3672 60.3672 h 18.29297 18.29297 v -60.3692 -60.3652 h -18.29297 z m 121.650392,0 0.677734,28.9648 c 0.425798,18.1703 1.34631,32.1446 2.46875,37.5 0.98408,4.6952 1.628558,8.7097 1.431641,8.918 -0.196914,0.2083 -1.322148,-2.2615 -2.5,-5.4883 -5.550947,-15.2065 -9.690515,-23.695 -22.402344,-45.9297 l -13.701172,-23.9629 h -19.421871 -19.42188 v 60.3672 60.3672 h 18.4082 18.406254 l -0.523434,-28.3535 c -0.38812,-20.989 -1.07985,-30.8341 -2.66211,-37.9004 -1.17566,-5.2503 -1.91016,-9.7754 -1.63086,-10.0547 0.27931,-0.2793 2.49991,4.87 4.933592,11.4414 2.76669,7.4706 10.192469,21.8639 19.818359,38.4082 l 15.396485,26.459 h 18.80664 18.804688 v -60.3691 -60.3672 h -18.44336 z m 49.083984,0 v 60.3672 60.3672 l 26.525391,-0.018 c 19.086499,-0.011 28.670425,-0.5253 34.171875,-1.8223 22.139871,-5.2198 35.771318,-19.8479 41.755859,-44.8105 8.700318,-36.2905 -8.199485,-65.0513 -42.496093,-72.3203 -5.517162,-1.1694 -16.445578,-1.7271 -34.041016,-1.7422 z m 315.861324,0 v 27.3047 c 0,19.6311 0.53349,30.1223 1.90039,37.3281 1.04569,5.5122 1.70769,10.2161 1.47071,10.4531 -0.23698,0.237 -2.42978,-5.0506 -4.87305,-11.75 -2.62602,-7.2006 -10.33143,-22.6267 -18.84766,-37.7304 l -14.40624,-25.5508 -19.81836,-0.025 -19.81836,-0.024 v 60.3672 60.3653 h 18.29296 18.29493 v -26.1778 c 0,-21.0873 -0.47147,-28.5994 -2.41797,-38.6406 -1.32895,-6.8557 -2.2458,-12.6351 -2.03906,-12.8418 0.20711,-0.2071 2.45765,5.2452 5.00195,12.1152 2.98077,8.0486 10.10302,21.9251 20.02734,39.0176 l 15.40235,26.5274 h 19.20898 19.20703 v -60.3672 -60.3672 H 319.7832 Z m 47.5625,0 v 60.3672 60.3672 h 37.80469 37.80664 v -14.0254 -14.0254 h -19.51367 -19.51172 v -9.7539 -9.7578 h 16.46289 16.46485 v -14.0235 -14.0254 h -16.51953 -16.51954 l 0.36133,-8.2304 0.35938,-8.2305 18.59765,-0.3379 18.59766,-0.3359 v -13.9942 -13.9922 h -37.19531 z m 179.27149,0 v 60.3672 60.3672 h 18.29297 18.29297 v -60.3692 -60.3652 h -18.29297 z m 97.25781,0 c -11.23502,0 -20.42578,0.2816 -20.42578,0.6289 0,0.3473 -8.50769,27.1497 -18.9043,59.5605 -10.39661,32.4107 -18.90234,59.2928 -18.90234,59.7364 0,0.4436 8.19344,0.8065 18.20703,0.8066 h 18.20703 l 1.98438,-7.0117 c 1.09171,-3.8567 2.26499,-7.9727 2.60742,-9.1465 0.55457,-1.8999 2.47684,-2.1348 17.50976,-2.1348 h 16.88868 l 2.15625,9.1465 2.15625,9.1465 h 18.78125 c 14.49981,0 18.65846,-0.3466 18.24218,-1.5234 -0.29669,-0.8384 -8.98695,-28.0031 -19.31054,-60.3653 l -18.76953,-58.8398 z m -0.19726,28.6582 1.51171,9.8848 c 1.2477,8.1554 5.30326,25.3162 8.25586,34.9316 0.58659,1.9104 -0.37496,2.1348 -9.18164,2.1348 -5.4113,0 -9.83984,-0.3652 -9.83984,-0.8125 0,-0.4475 1.65639,-6.9755 3.67969,-14.5059 2.02333,-7.5305 4.1038,-17.7282 4.625,-22.6621 z m -603.167973,3.9258 6.78125,0.7011 c 14.319609,1.4778 22.277705,9.3873 23.390625,23.252 0.39326,4.8992 0.02268,10.2705 -0.94336,13.7246 -2.026318,7.2373 -8.75743,14.4004 -15.205078,16.1816 -2.682973,0.7413 -6.935862,1.35 -9.451172,1.3536 l -4.572265,0.012 v -27.6113 z m 134.455083,1.8027 c 9.78077,-0.1429 19.70562,6.5712 22.96093,19.6797 2.83876,11.4311 -3.20357,26.0073 -12.63867,30.4844 -5.09428,2.4174 -13.45437,2.5684 -18.57812,0.3359 -10.91641,-4.7566 -16.93717,-20.8825 -12.61524,-33.791 3.72287,-11.1193 12.24099,-16.5831 20.8711,-16.709 z"
       inkscape:connector-curvature="0" />
  </g>
</svg>
